<svg width="17" height="17" viewBox="0 0 17 17" fill="none" xmlns="http://www.w3.org/2000/svg">
<path d="M11.7633 10.0878C13.8039 7.2062 13.1214 3.21603 10.2398 1.17585C7.35824 -0.864329 3.36807 -0.182319 1.32789 2.69977C-0.712291 5.58137 -0.0302809 9.57105 2.85181 11.6112C4.90856 13.0674 7.62783 13.1795 9.79719 11.8984L14.5108 16.5837C15.0198 17.1195 15.8665 17.1409 16.4023 16.632C16.9381 16.1235 16.9595 15.2767 16.4511 14.741C16.435 14.7239 16.4194 14.7083 16.4023 14.6922L11.7633 10.0878ZM6.54168 10.5246C4.26458 10.5251 2.41842 8.68039 2.41696 6.40329C2.41647 4.12619 4.26116 2.28003 6.53875 2.27906C8.81293 2.27808 10.6581 4.11985 10.6625 6.39403C10.6664 8.67162 8.82268 10.5207 6.5446 10.5246C6.54363 10.5246 6.54314 10.5246 6.54168 10.5246Z" fill="white"/>
</svg>
