<svg width="15" height="13" viewBox="0 0 15 13" fill="none" xmlns="http://www.w3.org/2000/svg">
<path d="M7.50002 2.60054L7.90147 2.05976C8.15628 1.71651 8.44229 1.42654 8.75379 1.19188L8.75382 1.19186C9.36597 0.730672 10.0535 0.5 10.8097 0.5C11.8347 0.5 12.7676 0.898121 13.447 1.61588L7.50002 2.60054ZM7.50002 2.60054L7.09855 2.05979M7.50002 2.60054L7.09855 2.05979M7.09855 2.05979C6.8436 1.71639 6.55768 1.42651 6.24626 1.19184C5.63399 0.730651 4.94643 0.5 4.19025 0.5C3.16534 0.5 2.23249 0.898121 1.55311 1.6159L7.09855 2.05979ZM9.46877 10.9717L9.46874 10.9717L9.46664 10.9735C8.95138 11.4013 8.36492 11.8882 7.75567 12.4071L7.75533 12.4074C7.68662 12.466 7.59621 12.5 7.5 12.5C7.40378 12.5 7.31326 12.4659 7.24486 12.4076L7.2446 12.4073C6.63981 11.8921 6.05713 11.4083 5.54444 10.9826L5.53093 10.9714L5.53089 10.9714C4.00839 9.70754 2.74217 8.65433 1.86845 7.62728L1.86843 7.62725C0.909284 6.49991 0.5 5.47943 0.5 4.39123C0.5 3.30799 0.880651 2.32647 1.55309 1.61592L9.46877 10.9717ZM9.46877 10.9717C10.9915 9.70767 12.2577 8.65434 13.1314 7.62738M9.46877 10.9717L13.1314 7.62738M13.1314 7.62738C14.0906 6.49989 14.5 5.47939 14.5 4.39134C14.5 3.30799 14.1194 2.32648 13.447 1.61592L13.1314 7.62738Z" stroke="#888888"/>
</svg>
