<svg width="24" height="23" viewBox="0 0 24 23" fill="none" xmlns="http://www.w3.org/2000/svg">
<path d="M22.2132 14.0001C21.8942 14.0001 21.6356 14.2587 21.6356 14.5777V19.7061C21.6345 20.6628 20.8595 21.438 19.9028 21.4389H3.69609C2.73944 21.438 1.96443 20.6628 1.9633 19.7061V4.65458C1.96443 3.69816 2.73944 2.92292 3.69609 2.92179H8.82451C9.14354 2.92179 9.4021 2.66323 9.4021 2.3442C9.4021 2.02539 9.14354 1.7666 8.82451 1.7666H3.69609C2.10183 1.76841 0.80991 3.06033 0.808105 4.65458V19.7064C0.80991 21.3006 2.10183 22.5925 3.69609 22.5944H19.9028C21.4971 22.5925 22.789 21.3006 22.7908 19.7064V14.5777C22.7908 14.2587 22.5323 14.0001 22.2132 14.0001Z" fill="#888888"/>
<path d="M22.5621 0.76131C21.547 -0.25377 19.9013 -0.25377 18.8862 0.76131L8.58154 11.066C8.51092 11.1366 8.45992 11.2241 8.4333 11.3203L7.07821 16.2125C7.02248 16.413 7.07911 16.6278 7.22621 16.7752C7.37355 16.9223 7.58834 16.9789 7.78892 16.9234L12.6811 15.5681C12.7772 15.5415 12.8648 15.4905 12.9354 15.4198L23.2398 5.11494C24.2533 4.09918 24.2533 2.45484 23.2398 1.43908L22.5621 0.76131ZM9.84006 11.4414L18.2736 3.00762L20.9935 5.72751L12.5597 14.1613L9.84006 11.4414ZM9.29676 12.5316L11.4697 14.7048L8.46399 15.5376L9.29676 12.5316ZM22.4231 4.29818L21.8105 4.91075L19.0904 2.19063L19.7032 1.57807C20.267 1.01423 21.1813 1.01423 21.7451 1.57807L22.4231 2.25584C22.986 2.82035 22.986 3.7339 22.4231 4.29818Z" fill="#888888"/>
</svg>
