<svg width="15" height="13" viewBox="0 0 15 13" fill="none" xmlns="http://www.w3.org/2000/svg">
<path d="M1.18996 1.27222C1.96644 0.451832 3.03188 0 4.19025 0C5.05611 0 5.84908 0.266662 6.54716 0.792517C6.89941 1.05795 7.21859 1.3827 7.5 1.76173C7.7813 1.38281 8.10059 1.05795 8.45295 0.792517C9.15092 0.266662 9.94389 0 10.8097 0C11.9681 0 13.0337 0.451832 13.8102 1.27222C14.5774 2.08302 15 3.19069 15 4.39134C15 5.62711 14.5272 6.7583 13.5123 7.95137C12.6043 9.01857 11.2993 10.1019 9.78813 11.3564C9.27212 11.7849 8.68721 12.2705 8.07987 12.7877C7.91943 12.9246 7.71355 13 7.5 13C7.28657 13 7.08057 12.9246 6.92036 12.788C6.31302 12.2706 5.72777 11.7847 5.21152 11.3561C3.70056 10.1018 2.39559 9.01857 1.48762 7.95126C0.472641 6.7583 0 5.62711 0 4.39123C0 3.19069 0.42263 2.08302 1.18996 1.27222Z" fill="#FF1850"/>
</svg>
