<svg width="42" height="44" viewBox="0 0 42 44" fill="none" xmlns="http://www.w3.org/2000/svg">
<path d="M37.5182 21.4851H4.87812C2.59798 21.4851 0.743164 23.3399 0.743164 25.6201V39.8652C0.743164 42.145 2.59798 43.9998 4.87812 43.9998H37.5182C39.7984 43.9998 41.6532 42.145 41.6532 39.8652V25.6201C41.6532 23.3399 39.7984 21.4851 37.5182 21.4851ZM39.1766 39.8652C39.1766 40.7794 38.4327 41.5233 37.5182 41.5233H4.87812C3.96361 41.5233 3.21969 40.7794 3.21969 39.8652V25.6201C3.21969 24.7056 3.96361 23.9616 4.87812 23.9616H37.5182C38.4327 23.9616 39.1766 24.7056 39.1766 25.6201V39.8652Z" fill="white"/>
<path d="M21.2015 14.1516C22.1854 14.1516 23.1692 13.7779 23.9183 13.0301C24.6448 12.3052 25.0447 11.341 25.0447 10.3153C25.0447 9.28952 24.6448 8.32535 23.9183 7.60045C22.4201 6.10519 19.9826 6.10519 18.4845 7.60045C17.7579 8.32535 17.3581 9.28952 17.3581 10.3153C17.3581 11.341 17.7579 12.3052 18.4845 13.0301C19.2335 13.7779 20.2174 14.1516 21.2015 14.1516ZM20.2338 9.35304C20.5008 9.08669 20.851 8.95383 21.2015 8.95383C21.5517 8.95383 21.9019 9.08701 22.1686 9.35304C22.4263 9.61005 22.5681 9.95186 22.5681 10.3153C22.5681 10.6787 22.4263 11.0202 22.1689 11.2775C21.6353 11.8099 20.7675 11.8096 20.2338 11.2775C19.9762 11.0202 19.8346 10.6787 19.8346 10.3153C19.8346 9.95186 19.9765 9.61037 20.2338 9.35304Z" fill="white"/>
<path d="M25.7261 15.7298C25.9679 15.9723 26.2852 16.0935 26.6025 16.0935C26.9192 16.0935 27.2355 15.9729 27.4774 15.7317C28.9268 14.2848 29.7253 12.3613 29.7253 10.315C29.7253 8.26861 28.9268 6.34479 27.4774 4.89822C26.9933 4.41517 26.2091 4.41582 25.7261 4.89983C25.243 5.38385 25.244 6.16808 25.728 6.65113C26.7086 7.62981 27.2487 8.93095 27.2487 10.315C27.2487 11.6987 26.7086 13.0001 25.728 13.9788C25.244 14.4619 25.243 15.2458 25.7261 15.7298Z" fill="white"/>
<path d="M14.919 15.7318C15.1608 15.973 15.4772 16.0936 15.7938 16.0936C16.1111 16.0936 16.4284 15.9723 16.6703 15.7298C17.1533 15.2458 17.1524 14.4619 16.6683 13.9788C15.6877 12.9998 15.1476 11.6987 15.1476 10.3147C15.1476 8.93099 15.6877 7.62985 16.6683 6.65085C17.1524 6.1678 17.1533 5.38389 16.6703 4.89987C16.1872 4.41553 15.403 4.41489 14.919 4.89794C13.4695 6.34483 12.6714 8.26833 12.6711 10.3147C12.6711 12.361 13.4695 14.2849 14.919 15.7318Z" fill="white"/>
<path d="M11.507 36.5682H8.18306V27.6782C8.18306 26.9943 7.62875 26.4399 6.9448 26.4399C6.26086 26.4399 5.70654 26.9943 5.70654 27.6782V37.8065C5.70654 38.4904 6.26086 39.0447 6.9448 39.0447H11.507C12.1906 39.0447 12.7453 38.4904 12.7453 37.8065C12.7453 37.1228 12.1906 36.5682 11.507 36.5682Z" fill="#FF1850"/>
<path d="M15.3433 26.4399C14.6594 26.4399 14.105 26.9943 14.105 27.6782V37.8065C14.105 38.4904 14.6594 39.0447 15.3433 39.0447C16.0269 39.0447 16.5816 38.4904 16.5816 37.8065V27.6782C16.5816 26.9943 16.0269 26.4399 15.3433 26.4399Z" fill="#FF1850"/>
<path d="M26.1723 26.4931C25.5181 26.2955 24.8267 26.666 24.629 27.3206L22.7568 33.5225L20.8843 27.3206C20.6866 26.6657 19.9956 26.2955 19.3409 26.4931C18.6863 26.6908 18.3158 27.3819 18.5135 28.0365L21.5714 38.1647C21.5718 38.1657 21.5721 38.1667 21.5724 38.1676C21.9094 39.2459 23.5694 39.3114 23.9412 38.1676C23.9415 38.1667 23.9419 38.166 23.9422 38.1647L27.0001 28.0365C27.1978 27.3815 26.8269 26.6908 26.1723 26.4931Z" fill="#FF1850"/>
<path d="M35.4515 28.9165C36.1354 28.9165 36.6898 28.3621 36.6898 27.6782C36.6898 26.9943 36.1354 26.4399 35.4515 26.4399H29.8655C29.1815 26.4399 28.6272 26.9943 28.6272 27.6782V37.8065C28.6272 38.4904 29.1815 39.0447 29.8655 39.0447H35.2848C35.9687 39.0447 36.523 38.4904 36.523 37.8065C36.523 37.1228 35.9687 36.5682 35.2848 36.5682H31.1037V33.3429H34.6176C35.3016 33.3429 35.8559 32.7886 35.8559 32.1047C35.8559 31.4207 35.3016 30.8664 34.6176 30.8664H31.1037V28.9165H35.4515Z" fill="#FF1850"/>
<path d="M31.5626 10.3155C31.5626 13.0764 30.4853 15.6726 28.5289 17.6251C28.0449 18.1081 28.0439 18.8924 28.527 19.3764C28.7691 19.6186 29.0861 19.7398 29.4034 19.7398C29.7201 19.7398 30.0364 19.6192 30.2783 19.378C32.7035 16.9576 34.0392 13.7391 34.0392 10.3155C34.0392 6.8922 32.7035 3.67337 30.2783 1.25296C29.7942 0.769908 29.0103 0.770553 28.527 1.25457C28.0439 1.73859 28.0449 2.52282 28.5289 3.00587C30.4853 4.95839 31.5626 7.55422 31.5626 10.3155Z" fill="white"/>
<path d="M12.9929 19.7396C13.3102 19.7396 13.6275 19.6184 13.8694 19.3762C14.3524 18.8922 14.3518 18.1079 13.8674 17.6249C11.9111 15.6724 10.8337 13.0762 10.8337 10.3149C10.8337 7.55402 11.9111 4.95786 13.8674 3.00534C14.3515 2.52229 14.3524 1.73806 13.8694 1.25436C13.386 0.770024 12.6021 0.769379 12.1181 1.25243C9.69282 3.67317 8.35718 6.89168 8.35718 10.3149C8.35718 13.7385 9.69282 16.9571 12.1181 19.3778C12.3599 19.619 12.6763 19.7396 12.9929 19.7396Z" fill="white"/>
</svg>
